<svg xmlns="http://www.w3.org/2000/svg" viewBox="0 0 512 512">
  <rect width="512" height="512" rx="112" fill="#020617"/>
  <circle cx="256" cy="254" r="168" fill="#16a34a" opacity="0.16"/>
  <circle cx="256" cy="254" r="118" fill="#22c55e" opacity="0.28"/>
  <path fill="#f8fafc" d="M154 306h22l12-76c7-43 33-70 76-70h42c43 0 69 27 76 70l12 76h20c15 0 27 12 27 27v28c0 15-12 27-27 27h-16v20c0 18-14 32-32 32s-32-14-32-32v-20H178v20c0 18-14 32-32 32s-32-14-32-32v-20H98c-15 0-27-12-27-27v-28c0-15 12-27 27-27h56Zm71-73-10 64h140l-10-64c-4-23-17-35-40-35h-40c-23 0-36 12-40 35Zm-69 95c-17 0-30 13-30 30s13 30 30 30 30-13 30-30-13-30-30-30Zm258 30c0-17-13-30-30-30s-30 13-30 30 13 30 30 30 30-13 30-30Z"/>
  <path fill="#38bdf8" d="M256 84c46 0 84 38 84 84 0 70-84 145-84 145s-84-75-84-145c0-46 38-84 84-84Zm0 121a37 37 0 1 0 0-74 37 37 0 0 0 0 74Z"/>
</svg>
